<svg width="373" height="119" viewBox="0 0 373 119" fill="none" xmlns="http://www.w3.org/2000/svg">
<path fill-rule="evenodd" clip-rule="evenodd" d="M156.979 5.57385C156.435 6.10711 156.003 6.15465 155.504 5.73479C154.53 4.91453 150.07 6.9008 149.325 8.48654C148.9 9.39023 148.86 9.15719 149.165 7.56272L149.573 5.43014L147.04 5.79346C143.336 6.32526 142.265 6.36579 141.639 5.99773C140.832 5.52302 137.145 5.80933 136.349 6.40848C135.906 6.74272 135.592 6.66997 135.437 6.19539C135.248 5.61503 134.824 5.59615 133.291 6.0987C131.988 6.52537 131.047 6.54192 130.332 6.15112C129.534 5.71325 129.001 5.83767 128.087 6.67591C127.09 7.5898 126.479 7.69727 124.458 7.31616C123.121 7.06364 121.767 6.9339 121.447 7.02755C121.128 7.12064 119.441 7.23853 117.697 7.28897C112.659 7.43508 112.51 7.45247 112.499 7.89906C112.493 8.13262 111.675 8.18721 110.68 8.02147C109.064 7.75145 108.903 7.84625 109.164 8.91245C109.36 9.71335 109.19 10.0988 108.646 10.0853C108.202 10.0742 107.846 9.69069 107.858 9.23301C107.872 8.67824 107.303 8.38654 106.152 8.3579C105.154 8.33309 104.418 8.60787 104.408 9.00841C104.397 9.43667 103.498 9.70798 102.057 9.7182C99.402 9.73653 98.5498 10.2122 99.7675 10.9963C100.332 11.3601 100.369 11.5303 99.8816 11.5243C99.4861 11.5189 99.1526 11.8892 99.1412 12.3468C99.1298 12.8045 98.732 13.1693 98.2571 13.1575C97.7823 13.1457 97.4031 12.7616 97.4145 12.3039C97.4258 11.8462 97.6942 11.4782 98.0107 11.486C98.3273 11.4939 98.5925 11.2507 98.6001 10.9456C98.6209 10.109 97.0574 10.2411 96.6875 11.1067C96.4905 11.567 95.8288 11.7504 94.9963 11.5754C93.7324 11.3102 93.6429 11.4368 93.8162 13.2424C93.9946 15.1004 95.3869 16.4329 96.1379 15.464C96.3277 15.2195 97.1967 14.993 98.0683 14.9614C98.9399 14.9298 99.9783 14.8834 100.375 14.8583C100.772 14.8332 101.674 14.9994 102.381 15.2274C103.341 15.5372 103.672 15.4183 103.689 14.7587C103.707 14.0402 103.983 13.9833 105.174 14.4537C107.375 15.3228 109.436 15.2342 109.46 14.2689C109.473 13.7513 110.024 13.4502 110.92 13.4725C111.761 13.4934 112.351 13.8273 112.34 14.275C112.314 15.3257 116.866 15.5056 117.307 14.4713C117.483 14.0593 118.319 13.7526 119.164 13.7892C122.092 13.9164 122.72 13.7622 122.741 12.9095C122.753 12.4385 123.085 12.1015 123.48 12.1612C123.874 12.2205 124.789 12.2543 125.514 12.2357C126.641 12.2077 126.747 12.0432 126.249 11.091C125.774 10.1833 125.827 10.0425 126.536 10.3244C127.014 10.515 127.396 11.0185 127.385 11.4435C127.374 11.8684 127.727 12.2253 128.168 12.2362C128.608 12.2472 129.108 12.6304 129.277 13.0876C129.728 14.309 136.678 14.1604 138.291 12.895C139.532 11.9216 140.925 11.6393 140.359 12.4762C140.179 12.7421 140.679 13.0954 141.471 13.2622C142.262 13.4284 143.057 13.3477 143.236 13.0829C143.416 12.8176 143.8 12.7505 144.09 12.9337C144.38 13.1164 144.625 13.0014 144.633 12.6786C144.641 12.3557 145.181 12.1043 145.832 12.1205C146.484 12.1368 146.851 12.3957 146.648 12.6959C146.421 13.0317 147.234 13.2334 148.761 13.2203C150.416 13.206 150.729 13.11 149.698 12.9322C148.596 12.7422 148.255 12.4251 148.509 11.8291C148.705 11.3693 149.019 11.2051 149.206 11.464C149.733 12.1937 151.995 13.3841 152.898 13.4065C153.343 13.4176 154.928 12.3707 156.419 11.0794C158.275 9.47243 159.122 9.01834 159.107 9.63913C159.094 10.1373 158.292 10.9711 157.323 11.491C155.34 12.5558 155.482 13.4708 157.638 13.5244C158.559 13.5473 158.938 13.3314 158.692 12.9256C158.416 12.4708 158.594 12.4547 159.317 12.8684C160.596 13.5997 162.474 13.2007 162.499 12.1926C162.51 11.771 162.777 11.4318 163.094 11.4397C163.41 11.4476 163.661 11.7869 163.651 12.1935C163.622 13.3541 170.405 13.3902 170.759 12.2316C170.978 11.5126 171.033 11.5301 171.068 12.332C171.117 13.4523 172.282 13.64 173.314 12.6932C173.851 12.2014 174.018 12.2027 174.005 12.6987C173.987 13.4243 184.097 13.6442 185.325 12.9453C185.699 12.732 186.129 12.8748 186.281 13.2622C186.492 13.7998 186.699 13.7794 187.158 13.1752C187.489 12.7399 187.639 12.1846 187.491 11.9406C187.343 11.6971 187.62 11.6563 188.107 11.8499C188.594 12.0441 188.985 12.4968 188.976 12.8568C188.958 13.5719 190.054 13.7624 194.424 13.8045C196.007 13.8194 199.374 13.9404 201.905 14.0727C209.966 14.4948 210.465 14.4811 210.708 13.8321C210.873 13.3904 211.203 13.4553 211.784 14.0437C212.841 15.1147 216.405 15.225 218.969 14.2657C220.662 13.6323 221.086 13.6428 222.027 14.3418C223.363 15.3343 224.547 15.452 223.607 14.4993C222.69 13.57 222.778 12.9244 223.818 12.9503C224.293 12.9621 224.672 13.3462 224.661 13.8039C224.65 14.2616 225.093 14.6679 225.646 14.7061C226.2 14.7448 227.428 14.8548 228.376 14.9505C229.324 15.0462 230.297 14.8628 230.537 14.543C230.83 14.1539 230.972 14.1907 230.967 14.6547C230.962 15.0365 231.541 15.359 232.253 15.3722C233.154 15.3885 233.325 15.2512 232.813 14.9204C232.222 14.5388 232.248 14.3163 232.945 13.7863C233.652 13.2493 233.923 13.3382 234.409 14.2674C234.766 14.9496 235.355 15.2884 235.876 15.1104C236.354 14.9469 237.059 15.0744 237.444 15.3937C238.58 16.3384 240.476 16.4722 241.516 15.6815C242.147 15.2026 242.482 15.162 242.471 15.567C242.455 16.2278 244.31 16.4771 244.941 15.8988C245.789 15.1211 249.915 15.2759 250.368 16.1026C250.847 16.9778 253.307 17.2776 257.001 16.9116C258.203 16.7922 259.95 16.9261 260.882 17.2085C261.813 17.4915 262.581 17.5217 262.587 17.2759C262.593 17.0301 263.246 16.8454 264.037 16.8651C264.829 16.8848 265.468 17.2149 265.459 17.5988C265.438 18.4326 267.589 19.1467 267.869 18.3987C267.976 18.1122 269.036 17.6917 270.224 17.4642C272.162 17.0933 272.381 17.1654 272.356 18.1639C272.332 19.1487 272.577 19.238 274.496 18.9416C275.689 18.7576 276.459 18.7967 276.208 19.0286C275.547 19.6394 279.349 20.8864 280.17 20.3284C280.568 20.058 280.999 20.1115 281.209 20.457C281.406 20.7821 282.545 21.0725 283.74 21.1022C284.935 21.1319 286.095 21.3407 286.317 21.566C286.946 22.2034 292.611 22.3571 293.433 21.7597C293.959 21.3759 294.159 21.4869 294.143 22.1531C294.124 22.8949 294.667 23.0871 296.855 23.1121C298.359 23.129 300.456 23.326 301.515 23.55C302.76 23.813 303.598 23.7245 303.885 23.2998C304.227 22.7959 304.513 22.8202 305.115 23.4036C306.255 24.5095 308.852 25.6005 309.32 25.1708C310.053 24.4985 312.468 24.805 312.765 25.6084C312.995 26.2298 313.237 26.2608 313.905 25.7534C314.751 25.11 316.192 25.5166 315.69 26.2569C315.458 26.6002 317.081 26.7178 319.232 26.5126C319.629 26.4747 319.985 26.0073 320.023 25.4742C320.079 24.699 320.156 24.6732 320.408 25.345C320.581 25.8073 321.102 26.4692 321.566 26.816C322.029 27.1628 322.232 27.7069 322.017 28.0246C321.775 28.3822 322.046 28.5077 322.73 28.3532C323.338 28.2162 324.766 28.5582 325.903 29.1127C327.042 29.6678 329.257 30.1543 330.827 30.1933C332.396 30.2324 333.676 30.4807 333.669 30.7447C333.663 31.0094 334.046 31.2354 334.521 31.2472C334.995 31.259 335.391 30.9924 335.399 30.6546C335.408 30.3167 335.8 30.1938 336.27 30.3815C336.741 30.5686 337.131 30.48 337.139 30.1849C337.161 29.3023 338.729 29.6161 339.083 30.5736C339.567 31.8834 339.529 31.9269 337.92 31.8869C336.513 31.8519 336.487 31.899 337.417 32.8408C338.114 33.5465 338.468 33.6369 338.649 33.1546C338.821 32.6942 339.497 32.9381 340.76 33.9165C341.936 34.8267 342.989 35.2287 343.625 35.0114C344.22 34.8081 344.826 34.9885 345.11 35.4541C345.374 35.887 346.051 36.253 346.616 36.2671C347.18 36.2817 347.666 36.6063 347.697 36.9878C347.727 37.37 347.778 37.893 347.812 38.1498C347.98 39.4557 353.006 40.6154 353.037 39.3556C353.046 38.9828 353.444 39.243 353.92 39.9338C354.396 40.6251 354.639 41.4077 354.459 41.673C354.023 42.3172 355.167 43.1805 357.121 43.6821C358.068 43.9255 359.323 44.9892 360.224 46.3128C361.055 47.5353 362.055 48.5527 362.444 48.574C362.833 48.5954 363.312 49.2951 363.507 50.1298C363.702 50.964 364.327 52.1519 364.895 52.77C365.597 53.533 365.784 54.2565 365.478 55.0238C365.23 55.6449 365.06 57.1384 365.099 58.3417C365.139 59.5457 364.771 61.0886 364.281 61.7714C363.792 62.4542 363.382 63.3955 363.37 63.8643C363.359 64.3325 363.091 64.6467 362.776 64.5628C362.461 64.4784 361.86 65.0257 361.44 65.7786C361.02 66.5314 360.092 67.3793 359.378 67.6629C358.664 67.9466 358.069 68.6063 358.056 69.1289C358.043 69.652 357.661 70.2698 357.208 70.5027C356.754 70.7357 356.278 71.6731 356.148 72.5858C355.977 73.7945 355.598 74.253 354.752 74.273C353.229 74.3095 350.474 75.636 348.653 77.2094C347.851 77.9022 347.129 78.4121 347.047 78.3418C346.63 77.984 341.225 80.1671 340.055 81.1666C339.645 81.5161 339.303 82.0988 339.294 82.4611C339.285 82.8383 338.807 82.9891 338.178 82.8135C337.573 82.6453 336.263 82.958 335.267 83.5094C334.271 84.0603 333.082 84.502 332.627 84.4907C332.17 84.4793 330.819 85.2573 329.623 86.2189C328.427 87.1812 326.975 87.8784 326.396 87.769C325.656 87.629 325.336 87.912 325.316 88.7252C325.291 89.6994 325.048 89.816 323.763 89.471C322.501 89.1326 322.297 89.2214 322.58 89.9861C322.808 90.6041 322.621 90.9031 322.015 90.888C321.445 90.8738 321.238 90.5589 321.46 90.0415C321.699 89.4813 321.449 89.2086 320.679 89.1894C320.055 89.1739 319.54 89.3693 319.534 89.6234C319.527 89.878 319.198 90.1202 318.8 90.1625C312.453 90.8367 309.236 91.9313 308.96 93.5109C308.773 94.5837 308.671 94.6139 307.935 93.8118C307.102 92.9034 307.073 92.9055 302.043 94.2498C300.873 94.5626 298.942 94.9143 297.752 95.0307C296.563 95.1476 295.285 95.4744 294.914 95.7566C294.543 96.0388 292.698 96.3954 290.814 96.5489C288.914 96.7037 286.164 97.4197 284.636 98.1577C282.425 99.2251 281.72 99.3503 281.057 98.7925C280.454 98.2852 279.919 98.2502 279.068 98.6631C278.427 98.9736 277.019 99.2056 275.938 99.1787C274.859 99.1518 273.162 99.496 272.168 99.9437C271.056 100.445 268.106 100.806 264.49 100.884C261.261 100.954 258.165 101.23 257.612 101.499C257.058 101.767 254.82 101.983 252.639 101.979C250.458 101.974 247.623 102.278 246.339 102.655C245.055 103.031 242.326 103.342 240.274 103.347C237.663 103.353 236.131 103.649 235.167 104.336C233.97 105.187 233.683 105.209 232.983 104.499C232.397 103.905 231.793 103.813 230.764 104.161C229.987 104.424 228.372 104.596 227.174 104.542C225.977 104.488 224.738 104.492 224.419 104.55C224.101 104.609 223.026 104.594 222.031 104.517C221.035 104.441 220.043 104.641 219.826 104.962C219.609 105.282 218.831 105.53 218.096 105.511C217.363 105.493 216.436 105.838 216.039 106.277C215.442 106.936 215.186 106.946 214.579 106.331C213.667 105.406 207.066 105.467 205.824 106.411C205.159 106.917 204.877 106.895 204.521 106.308C204.181 105.748 202.452 105.543 197.669 105.495C190.674 105.425 188.399 105.888 188.335 107.394C188.295 108.306 188.248 108.3 187.693 107.325C187.208 106.473 186.993 106.415 186.566 107.02C186.152 107.606 185.975 107.522 185.744 106.626C185.543 105.852 184.906 105.432 183.76 105.319C182.832 105.228 182.067 105.373 182.06 105.644C182.054 105.914 181.273 106.028 180.326 105.897C179.379 105.767 178.599 105.887 178.592 106.164C178.574 106.884 176.803 107.114 175.077 106.622C173.966 106.305 173.426 106.455 172.897 107.228C172.511 107.793 171.756 108.244 171.221 108.231C170.464 108.212 170.405 108.063 170.954 107.558C172.454 106.183 171.667 105.745 167.65 105.715C165.428 105.698 163.48 105.472 163.322 105.211C162.902 104.518 160.267 105.743 159.951 106.779C159.734 107.494 159.673 107.468 159.64 106.645C159.603 105.733 159.12 105.627 155.134 105.662C152.679 105.683 150.091 105.881 149.384 106.102C148.627 106.338 147.954 106.264 147.747 105.923C147.553 105.603 146.996 105.478 146.508 105.645C146.021 105.812 145.337 105.723 144.988 105.448C143.156 104.004 140.675 104.435 139.85 106.34C139.567 106.995 139.489 106.963 139.472 106.183C139.457 105.489 138.99 105.198 137.868 105.186C136.997 105.177 135.647 105.085 134.867 104.981C133.305 104.774 132.399 106.515 133.657 107.307C134.039 107.548 134.167 108.018 133.941 108.352C133.348 109.228 132.444 109.073 132.468 108.1C132.479 107.642 132.22 107.261 131.893 107.253C131.499 107.243 131.526 106.849 131.974 106.087C132.626 104.979 132.544 104.942 129.715 105.06C127.513 105.152 126.785 104.992 126.799 104.422C126.815 103.807 126.648 103.789 125.938 104.329C125.404 104.735 125.063 104.771 125.072 104.42C125.081 104.082 123.595 103.802 121.489 103.746C119.511 103.693 115.002 103.494 111.471 103.305C107.94 103.116 105.166 103.152 105.307 103.385C105.65 103.95 103.84 103.238 102.178 102.153C101.213 101.524 100.582 101.436 99.8824 101.833C99.3444 102.139 98.4127 102.177 97.7769 101.92C96.0971 101.239 91.7813 101.179 89.2052 101.8C87.5075 102.21 86.8512 102.177 86.5425 101.669C86.3095 101.284 84.6771 100.924 82.7551 100.833C79.9564 100.701 79.1508 100.881 78.0516 101.889C76.4019 103.402 75.2901 103.478 76.2943 102.009C77.1406 100.771 76.5374 99.8078 75.5071 100.753C74.4916 101.684 73.6164 101.511 74.4852 100.551C74.8909 100.103 75.1261 99.7216 75.0085 99.7032C74.8915 99.6853 73.161 99.4907 71.1639 99.2711C67.9078 98.9131 67.3768 99.0026 66.0215 100.142L64.5103 101.413L64.9281 99.897C65.3833 98.2453 65.4208 98.2656 61.4458 98.0041C60.1015 97.9151 58.9964 98.0708 58.9894 98.3499C58.9825 98.6289 58.5796 98.4546 58.0943 97.9623C57.6083 97.4706 56.7547 97.057 56.1969 97.0431C55.6392 97.0292 55.0215 96.854 54.8238 96.6542C54.6266 96.4539 53.4879 96.2024 52.2943 96.0956C46.7816 95.5998 43.2702 94.9901 42.5786 94.4084C42.0201 93.9382 41.5801 93.96 40.8809 94.4916C40.0814 95.099 39.8267 95.056 39.2183 94.211C38.6782 93.4615 38.4197 93.3912 38.1794 93.9287C37.9281 94.4898 37.7547 94.4938 37.3737 93.9481C37.1062 93.5656 36.2828 93.3491 35.5438 93.4673C34.8042 93.586 32.7634 93.1561 31.0078 92.5124C29.2528 91.8681 27.3499 91.4716 26.7804 91.6306C26.1453 91.8074 25.7482 91.6366 25.7541 91.1882C25.7606 90.6499 25.6074 90.6727 25.1714 91.2753C24.665 91.9755 24.4396 91.9132 23.6075 90.845C23.0722 90.1589 21.1592 89.015 19.3552 88.3029C17.5511 87.5913 16.0798 86.8442 16.0848 86.6428C16.0898 86.4414 15.1848 86.3556 14.0737 86.4529C12.2163 86.6154 12.0564 86.5115 12.0898 85.1679C12.1194 83.9801 11.7968 83.6346 10.3642 83.3214C9.12056 83.0495 8.17966 82.2545 7.16579 80.6189C6.37563 79.3442 5.79256 78.2183 5.86998 78.1159C5.94797 78.0135 5.64359 77.6312 5.19364 77.2664C4.74426 76.9016 4.25007 75.1663 4.09503 73.411C3.8481 70.6038 3.95527 70.1391 4.98698 69.5524C5.63194 69.186 6.17351 68.3219 6.19066 67.6323C6.2078 66.9433 6.46877 66.3852 6.77038 66.3927C7.07198 66.4002 7.77119 65.5433 8.32327 64.4885C8.87534 63.4336 9.68679 62.5795 10.1254 62.5904C10.564 62.6013 10.931 62.2957 10.9405 61.9118C10.9501 61.5273 11.4837 60.9139 12.1263 60.5485C12.769 60.1831 13.3064 59.416 13.3206 58.8441C13.3354 58.2505 13.8741 57.6849 14.5767 57.5264C15.566 57.3029 15.7413 56.9692 15.4722 55.8184C15.1452 54.4225 15.9006 53.8528 16.5845 54.9795C16.7726 55.2895 17.1422 55.5485 17.4064 55.5551C18.1219 55.5729 18.6924 53.9167 18.2295 53.1664C18.0081 52.8067 17.9116 52.0777 18.0164 51.5457C18.1207 51.0143 17.9157 50.5718 17.5605 50.5629C17.2054 50.5541 17.0641 50.7932 17.2467 51.0941C17.4293 51.3951 16.9261 51.7817 16.1281 51.9539C15.3302 52.1261 14.5092 52.7374 14.3037 53.3124C14.0988 53.888 13.6892 54.3524 13.394 54.345C13.0987 54.3377 12.8494 54.6357 12.8401 55.0074C12.8309 55.3791 12.1201 56.2368 11.2613 56.9132C10.4018 57.5891 9.40095 58.6966 9.0374 59.3731C8.67384 60.0502 7.53163 60.9577 6.49972 61.39C5.46608 61.8228 4.60749 62.6041 4.58752 63.1293C4.5641 63.7466 4.24946 63.9619 3.6957 63.7416C2.70339 63.3461 2.60119 63.9814 3.33352 65.9836C3.76607 67.164 3.655 67.5076 2.69193 67.9743C2.05182 68.2848 1.68101 68.7902 1.86801 69.0985C2.05502 69.4062 1.86778 70.0338 1.45204 70.4931C0.890017 71.1142 0.851907 71.5812 1.3041 72.3191C1.67662 72.9257 1.70513 73.6086 1.37895 74.0795C0.652523 75.1278 0.615317 77.8969 1.32732 77.9146C1.64389 77.9225 1.90655 78.6163 1.91043 79.4557C1.91431 80.2951 2.05636 80.6739 2.2253 80.2962C2.62468 79.4063 3.48403 79.4277 3.37993 80.3249C3.24433 81.4928 5.34396 85.231 6.14691 85.2509C6.56306 85.2613 6.89507 85.6209 6.8844 86.0498C6.87222 86.5396 7.26927 86.7388 7.94983 86.5853C8.69235 86.4178 9.41898 86.8894 10.2555 88.0826C10.9269 89.0408 11.9772 89.8369 12.5884 89.8521C13.2003 89.8673 13.6912 90.2542 13.6798 90.7119C13.6684 91.1696 14.0476 91.5537 14.5225 91.5655C14.9973 91.5773 15.3791 91.8577 15.3709 92.1878C15.3627 92.5184 15.6828 92.6824 16.0818 92.5524C16.4812 92.4225 16.7527 92.0429 16.6856 91.7087C16.6185 91.3745 16.9457 91.2533 17.4122 91.4392C17.8787 91.6251 18.2529 92.0968 18.2432 92.4868C18.226 93.1792 21.4693 95.069 22.7287 95.1003C23.0769 95.109 23.356 95.328 23.3496 95.5865C23.3431 95.845 24.1403 96.0985 25.1216 96.1501C26.1023 96.2012 27.3563 96.6576 27.9081 97.1637C28.5816 97.7811 29.4096 97.976 30.427 97.7565C31.3164 97.5649 31.9371 97.6625 31.9289 97.9926C31.9212 98.3021 32.4362 98.4376 33.0733 98.2942C34.3806 97.9986 34.6089 97.2932 33.5413 96.847C33.1496 96.6835 33.4123 96.544 34.1249 96.5379C34.8744 96.531 35.4129 96.8541 35.4017 97.304C35.3787 98.2305 38.5513 99.6311 40.3865 99.5047C41.1001 99.4558 41.6788 99.6479 41.6717 99.9319C41.6504 100.79 43.4594 101.229 44.3206 100.575C44.9447 100.1 45.1218 100.155 45.1054 100.818C45.0893 101.465 45.9611 101.772 48.6737 102.075C50.6484 102.296 53.002 102.468 53.9053 102.458C55.3848 102.441 55.5194 102.285 55.2651 100.886C55.0665 99.7938 55.2478 99.2432 55.8769 99.028C57.2338 98.5643 57.4089 98.6586 56.9948 99.6281C56.7025 100.312 56.8844 100.457 57.7815 100.254C59.2689 99.9189 59.2652 100.531 57.7744 101.512C56.7105 102.213 56.6903 102.352 57.5152 103.276C58.1472 103.983 58.6991 104.139 59.3894 103.805C59.9438 103.536 60.7107 103.547 61.1604 103.83C61.5964 104.105 62.1412 104.224 62.3702 104.095C62.5997 103.966 63.5143 104.15 64.4034 104.505C65.2925 104.859 67.3119 105.293 68.8914 105.47C70.4709 105.645 72.2453 105.946 72.8344 106.137C73.532 106.363 73.774 106.267 73.5272 105.86C72.9596 104.925 74.1218 105.135 74.9228 106.113C75.9054 107.314 76.6239 107.188 76.6581 105.811C76.6796 104.949 76.8772 104.784 77.3934 105.193C77.782 105.501 78.9347 106.047 79.955 106.406C81.6964 107.019 81.8126 106.979 81.8428 105.766C81.8633 104.94 82.2925 104.379 83.0316 104.212C83.9415 104.006 84.0778 104.13 83.6708 104.793C82.7645 106.267 84.8181 107.685 87.952 107.75C89.474 107.781 91.8153 108.078 93.1554 108.408C94.5779 108.759 95.7292 108.806 95.9223 108.52C96.1041 108.251 95.9784 108.025 95.6435 108.016C95.3085 108.008 95.0387 107.806 95.0447 107.568C95.0617 106.883 98.3463 105.96 99.0931 106.43C99.5354 106.709 99.302 106.968 98.4148 107.185L97.0618 107.516L98.3454 108.61C99.9753 110 108.094 110.4 108.642 109.118C109.079 108.095 110.005 108.155 109.979 109.206C109.966 109.717 110.497 110.051 111.358 110.073C112.536 110.102 112.758 109.847 112.751 108.47C112.746 107.273 112.433 106.779 111.588 106.637C110.581 106.466 110.546 106.356 111.32 105.773C112.07 105.207 112.409 105.508 113.526 107.733L114.845 110.361L115.212 108.743C115.414 107.853 115.392 106.57 115.164 105.892C114.842 104.937 114.936 104.734 115.58 104.99C116.036 105.172 116.407 105.606 116.403 105.955C116.399 106.335 116.606 106.287 116.918 105.838C117.652 104.78 118.825 105.689 118.37 106.963C118.163 107.543 118.253 108.024 118.569 108.032C118.886 108.039 119.297 108.549 119.483 109.164C119.668 109.78 120.191 110.292 120.645 110.304C121.098 110.315 121.463 110.574 121.456 110.879C121.437 111.618 123.523 111.637 125.022 110.91C125.945 110.463 126.334 110.505 126.699 111.091C127.067 111.683 127.181 111.637 127.207 110.883C127.246 109.726 128.807 109.648 130.053 110.74C130.543 111.169 131.911 111.687 133.094 111.891C134.771 112.18 135.249 112.079 135.265 111.428C135.286 110.591 136.681 110.774 138.679 111.874C139.131 112.123 140.094 112.127 140.818 111.881C141.609 111.614 142.267 111.652 142.464 111.978C142.947 112.773 146.614 112.733 146.918 111.929C147.105 111.433 147.399 111.41 147.975 111.847C148.414 112.181 150.26 112.554 152.077 112.675C154.999 112.871 155.546 112.733 156.814 111.478L158.247 110.06L158.404 111.347C158.551 112.557 158.788 112.633 162.305 112.607C164.364 112.592 166.309 112.561 166.626 112.537C166.944 112.513 170.735 112.754 175.053 113.071C182.417 113.613 182.921 113.585 183.205 112.619C183.471 111.71 183.512 111.704 183.549 112.562C183.587 113.43 184.22 113.796 185.436 113.654C186.315 113.551 202.982 113.343 204.473 113.416C205.343 113.459 206.06 113.26 206.068 112.975C206.075 112.661 206.605 112.663 207.411 112.982C208.143 113.271 209.091 113.311 209.517 113.072C209.947 112.83 210.717 112.906 211.245 113.242C211.838 113.618 213.053 113.699 214.459 113.455C215.703 113.239 216.954 113.123 217.24 113.197C217.526 113.272 217.952 113.049 218.187 112.702C218.509 112.226 218.914 112.235 219.835 112.739C220.506 113.107 221.295 113.273 221.587 113.109C221.879 112.945 223.743 112.728 225.73 112.63C227.716 112.53 229.515 112.192 229.728 111.877C229.941 111.563 230.609 111.327 231.213 111.354C232.727 111.42 234.423 111.459 235.623 111.457C236.177 111.456 236.639 111.096 236.65 110.657C236.661 110.218 237.059 109.869 237.534 109.881C238.008 109.892 238.391 110.152 238.383 110.457C238.376 110.762 238.742 111.021 239.196 111.032C239.785 111.047 240.031 110.404 240.048 108.806C240.061 107.57 240.235 106.409 240.436 106.225C240.637 106.042 240.784 106.545 240.764 107.344C240.724 108.967 241.758 111.651 242.43 111.668C243.508 111.695 244.705 110.986 244.722 110.31C244.753 109.061 246.045 108.757 246.81 109.819C247.668 111.01 249.614 110.604 249.144 109.332C248.964 108.844 249.16 108.505 249.619 108.516C250.05 108.527 250.542 108.914 250.713 109.376C250.884 109.838 251.616 110.202 252.339 110.185C253.314 110.161 253.395 110.081 252.652 109.874C251.49 109.551 251.319 108.558 252.43 108.586C252.845 108.596 253.677 108.971 254.28 109.418C255.053 109.993 255.592 110.068 256.111 109.674C256.629 109.28 256.842 109.307 256.831 109.763C256.82 110.193 257.446 110.313 258.694 110.12C260.7 109.81 261.381 109.716 267.218 108.942C269.284 108.667 271.498 108.226 272.138 107.961C272.778 107.696 273.949 107.521 274.739 107.573C276.794 107.709 280.703 107.065 281.361 106.483C281.669 106.211 282.412 106.001 283.012 106.016C283.612 106.031 284.802 105.594 285.657 105.045C286.715 104.365 287.574 104.197 288.35 104.518C290.153 105.263 290.918 105.175 290.581 104.261C290.384 103.729 290.609 103.429 291.195 103.444C291.704 103.457 292.114 103.717 292.106 104.022C292.099 104.327 292.481 104.586 292.956 104.598C293.976 104.623 293.987 104.563 293.305 102.7C292.963 101.766 292.976 101.268 293.341 101.277C293.649 101.285 293.893 101.665 293.881 102.123C293.87 102.581 294.357 102.968 294.964 102.983C295.571 102.998 296.147 103.254 296.246 103.552C296.35 103.87 297.531 103.741 299.096 103.241C301.117 102.595 301.938 101.981 302.469 100.719L303.17 99.0512L304.017 100.279C304.823 101.447 304.978 101.47 307.235 100.765C308.539 100.357 309.798 100.144 310.031 100.292C310.265 100.438 310.354 99.9688 310.23 99.2473C310.008 97.959 311.327 96.5329 311.689 97.6705C311.791 97.9894 312.198 98.7012 312.596 99.2529C313.233 100.138 313.585 100.183 315.589 99.6349C316.839 99.2935 318.97 98.5644 320.327 98.0141C321.683 97.4639 323.189 97.0234 323.674 97.0355C324.159 97.0476 325.597 96.4588 326.869 95.7272C328.142 94.9956 329.558 94.4063 330.017 94.4177C330.475 94.4291 331.201 94.1346 331.629 93.7639C332.056 93.3932 333.278 93.0439 334.342 92.9888C335.407 92.9331 336.835 92.5318 337.517 92.0963C338.197 91.6608 339.215 91.3159 339.778 91.3299C340.34 91.3439 340.81 90.9809 340.821 90.5232C340.833 90.0566 341.355 89.7038 342.011 89.7201C342.655 89.7361 343.339 89.3784 343.532 88.9253C343.726 88.4721 344.511 88.117 345.276 88.136C346.231 88.1598 346.85 87.7394 347.249 86.7973C347.818 85.4537 349.024 84.9091 348.997 86.0081C348.977 86.8286 350.09 86.7092 351.101 85.7829C351.587 85.337 352.423 84.9831 352.958 84.9964C353.494 85.0098 354.201 84.4856 354.53 83.8321C354.859 83.178 355.651 82.3861 356.29 82.0717C356.929 81.7573 358.038 80.9528 358.755 80.2834C359.471 79.6146 360.264 79.0614 360.517 79.0549C360.77 79.0479 361.644 78.2747 362.459 77.3358C363.275 76.3968 364.672 74.9922 365.565 74.2151C367.731 72.3288 371.258 65.9007 369.622 66.8209C368.44 67.4859 368.914 64.8737 370.468 62.1623C371.402 60.5308 371.967 59.0461 371.723 58.8629C371.478 58.6792 371.321 56.8023 371.373 54.692C371.436 52.1195 371.232 50.7722 370.754 50.6054C370.362 50.4685 370.05 50.03 370.06 49.6306C370.07 49.2306 369.717 48.76 369.276 48.5847C368.835 48.4088 368.32 47.4979 368.13 46.56C367.941 45.6221 367.551 44.7065 367.263 44.525C366.975 44.3441 366.744 43.6484 366.749 42.9796C366.754 42.3108 366.201 41.1152 365.519 40.3228C363.823 38.3493 360.042 35.5786 360.025 36.2942C360.017 36.6149 359.622 36.8676 359.147 36.8558C358.672 36.844 358.289 36.6246 358.295 36.3689C358.301 36.1126 357.666 35.6022 356.883 35.2352C356.101 34.8677 355.465 34.1252 355.47 33.5841C355.481 32.5796 352.257 30.5782 350.561 30.536C350.055 30.5234 349.283 30.0668 348.845 29.5219C348.299 28.8405 347.955 28.7342 347.747 29.1826C347.541 29.6238 347.076 29.4623 346.306 28.6821C345.516 27.882 344.741 27.6223 343.771 27.8313C342.987 28.0006 342.379 27.8878 342.387 27.5749C342.41 26.6695 338.337 24.3289 335.857 23.8214C334.597 23.5636 333.305 23.1346 332.987 22.8685C331.818 21.8902 325.846 20.1052 321.657 19.4825C320.345 19.2878 318.435 18.8961 317.413 18.6125C316.154 18.2637 315.549 18.2931 315.539 18.7041C315.53 19.0376 314.953 18.7773 314.257 18.1249C313.462 17.3807 311.921 16.8106 310.12 16.5931C308.54 16.4023 305.96 15.9346 304.386 15.5529C302.812 15.1718 300.026 14.725 298.195 14.5596C296.364 14.3947 294.559 14.0117 294.185 13.7087C293.81 13.4058 291.69 13.0899 289.475 13.0065C285.506 12.8572 284.564 12.72 282.875 12.0469C281.34 11.4352 275.988 11.0678 275.976 11.5732C275.969 11.8445 275.491 11.8077 274.914 11.4913C274.192 11.0959 273.653 11.1108 273.185 11.5399C272.672 12.0106 272.51 11.9739 272.525 11.3914C272.538 10.8294 272.34 10.8744 271.795 11.5564C270.951 12.6134 268.637 12.4532 267.93 11.2893C267.628 10.7905 266.876 10.6452 265.657 10.8491C264.417 11.0559 263.962 10.9641 264.235 10.5612C264.486 10.19 264.137 10.2107 263.3 10.6168C262.194 11.1527 261.855 11.1132 261.333 10.3885C260.767 9.60286 260.632 9.60672 260.025 10.4243C259.397 11.2696 259.346 11.265 259.337 10.3644C259.332 9.83027 259.263 9.36838 259.185 9.33868C259.107 9.30953 256.471 9.11074 253.329 8.89768C250.186 8.68405 247.304 8.24822 246.925 7.92902C246.452 7.53091 246.101 7.54384 245.814 7.96911C245.539 8.37418 244.668 8.43244 243.31 8.13609C239.763 7.36174 237.492 7.36131 237.473 8.13521C237.463 8.52743 237.196 8.8422 236.879 8.83432C236.563 8.82645 236.376 8.54091 236.463 8.19947C236.551 7.85805 235.977 7.49515 235.188 7.3928C234.398 7.29045 233.174 7.01243 232.467 6.77446C231.494 6.44773 231.177 6.56084 231.16 7.23932C231.147 7.73306 231.44 8.14389 231.809 8.15308C232.178 8.16226 232.282 8.35192 232.039 8.57403C231.797 8.7967 231.283 8.54134 230.898 8.00663C229.947 6.68512 227.267 6.52741 224.892 7.65294C223.347 8.38446 222.796 8.43346 222.294 7.88198C221.814 7.35433 221.832 7.28317 222.368 7.59182C222.803 7.84301 223.086 7.66741 223.099 7.1365C223.111 6.66106 222.79 6.26339 222.386 6.25333C221.491 6.23107 219.031 7.682 218.017 8.82974C217.373 9.55978 217.281 9.50586 217.308 8.41629C217.333 7.41549 217.105 7.22832 216.179 7.48672C215.353 7.71707 215.025 7.55794 215.041 6.93216C215.057 6.28919 214.56 6.06922 213.189 6.11173C212.159 6.14437 210.892 6.35767 210.373 6.58624C209.855 6.81482 209.278 6.84708 209.091 6.65758C208.904 6.46752 206.376 6.18204 203.474 6.02271C199.484 5.80411 197.865 5.93256 196.829 6.55129C195.68 7.23768 195.414 7.24383 195.172 6.59C194.869 5.77145 192.757 5.57681 191.549 6.25619C191.159 6.47573 190.957 6.85043 191.102 7.08827C191.246 7.32612 190.999 7.99942 190.552 8.58337C189.857 9.48981 187.934 9.7828 186.186 9.2486C185.703 9.10114 188.775 8.01183 189.308 8.14221C189.583 8.209 189.656 7.855 189.472 7.3547C189.287 6.85493 189.141 6.21461 189.148 5.93279C189.156 5.63488 187.286 5.50955 184.692 5.63375C179.421 5.88566 179.515 5.8891 177.499 5.37211C176.295 5.06294 175.92 5.1713 175.904 5.83203C175.885 6.59761 175.705 6.60089 174.319 5.86089C172.179 4.71742 167.871 4.68073 166.134 5.79105C165.134 6.43064 164.662 6.4994 164.512 6.02826C164.202 5.05298 161.212 5.14237 160.297 6.15376C159.58 6.94529 159.429 6.92433 158.628 5.9213C157.88 4.98398 157.633 4.93176 156.979 5.57385ZM164.348 7.3076C164.337 7.76528 164.068 8.16438 163.75 8.19478C163.433 8.22518 162.904 8.2742 162.575 8.30432C162.245 8.33442 161.721 8.72717 161.41 9.17739C160.607 10.3381 160.672 8.85926 161.485 7.47728C162.218 6.23097 164.378 6.1032 164.348 7.3076ZM133.815 7.62553C133.812 7.76034 133.546 8.01797 133.225 8.19871C132.904 8.37946 132.648 8.26262 132.656 7.93974C132.664 7.61687 132.929 7.35869 133.246 7.36656C133.562 7.37444 133.819 7.49073 133.815 7.62553ZM116.785 10.2483C116.197 11.1169 115.303 10.3752 115.731 9.3739C115.966 8.82299 116.283 8.72427 116.642 9.08849C116.945 9.39523 117.009 9.91696 116.785 10.2483ZM257.511 12.9558C257.5 13.4135 257.11 13.7785 256.645 13.7669C256.13 13.7541 255.937 13.424 256.151 12.9219C256.345 12.4688 256.735 12.1038 257.018 12.1108C257.3 12.1179 257.522 12.4981 257.511 12.9558ZM263.524 12.689C263.232 12.911 262.793 13.337 262.549 13.6362C262.296 13.9469 262.112 13.7636 262.121 13.2092C262.13 12.6693 262.562 12.2488 263.096 12.262C263.623 12.2751 263.816 12.467 263.524 12.689ZM114.169 10.2227C114.161 10.5278 113.896 10.771 113.579 10.7631C113.263 10.7552 113.01 10.4991 113.017 10.194C113.025 9.8889 113.29 9.6457 113.607 9.65357C113.923 9.66145 114.176 9.91754 114.169 10.2227ZM132.437 10.4573C132.241 10.6367 131.744 10.6443 131.333 10.4737C130.878 10.2853 131.018 10.1572 131.689 10.1472C132.296 10.1385 132.633 10.2778 132.437 10.4573ZM272.441 14.7571C272.434 15.0195 272.044 15.0814 271.573 14.8943C271.103 14.7066 270.723 14.338 270.73 14.0751C270.736 13.8127 271.127 13.7508 271.597 13.9379C272.068 14.1256 272.447 14.4942 272.441 14.7571ZM284.543 14.4609C284.535 14.766 284.076 15.0005 283.522 14.9823C282.661 14.9536 282.642 14.8732 283.392 14.4322C284.495 13.7824 284.56 13.7841 284.543 14.4609ZM103.493 11.0673C103.681 11.3773 103.56 11.6241 103.225 11.6158C102.89 11.6074 102.622 11.3509 102.629 11.0458C102.637 10.7407 102.757 10.4939 102.897 10.4974C103.037 10.5009 103.305 10.7573 103.493 11.0673ZM254.009 14.8115C254.002 15.1167 253.721 15.3595 253.386 15.3511C253.051 15.3428 252.942 15.0903 253.146 14.7901C253.349 14.4898 253.629 14.247 253.769 14.2505C253.909 14.2539 254.017 14.5064 254.009 14.8115ZM268.339 16.5253C268.847 17.1463 268.864 17.4015 268.396 17.3899C268.031 17.3808 267.592 16.9952 267.422 16.533C267.25 16.0707 266.75 15.6836 266.309 15.6726C265.868 15.6617 265.514 15.3942 265.521 15.0785C265.539 14.3601 267.311 15.2696 268.339 16.5253ZM260.752 15.3146C260.556 15.494 260.059 15.5016 259.648 15.331C259.193 15.1426 259.333 15.0145 260.004 15.0045C260.611 14.9958 260.948 15.1351 260.752 15.3146ZM92.0264 12.8177C91.2584 13.5213 91.612 14.6575 92.604 14.6739C93.4007 14.687 93.4482 14.585 92.8303 14.186C92.4007 13.9089 92.234 13.409 92.46 13.0755C92.912 12.4078 92.6458 12.2496 92.0264 12.8177ZM281.966 19.1729C281.77 19.3524 281.273 19.36 280.862 19.1893C280.407 19.0009 280.547 18.8728 281.218 18.8629C281.825 18.8541 282.162 18.9935 281.966 19.1729ZM283.829 19.9942C283.822 20.2994 283.557 20.5426 283.24 20.5347C282.923 20.5268 282.671 20.2707 282.678 19.9656C282.686 19.6605 282.951 19.4173 283.268 19.4251C283.584 19.433 283.837 19.6891 283.829 19.9942ZM290.154 20.4291C290.143 20.8868 289.874 21.2548 289.558 21.2469C289.241 21.2391 288.991 20.8582 289.003 20.4005C289.014 19.9428 289.283 19.5748 289.599 19.5826C289.916 19.5905 290.165 19.9714 290.154 20.4291ZM306.242 21.9723C306.23 22.4477 305.965 22.6765 305.653 22.48C305.342 22.2835 305.092 21.8882 305.099 21.6008C305.107 21.3134 305.371 21.0852 305.688 21.0931C306.005 21.101 306.254 21.4969 306.242 21.9723ZM327.415 27.4622C327.404 27.9199 327.006 28.2847 326.531 28.2729C326.057 28.2611 325.677 27.877 325.689 27.4193C325.7 26.9616 326.098 26.5968 326.573 26.6086C327.048 26.6204 327.427 27.0046 327.415 27.4622ZM347.246 32.8128C347.077 33.1905 346.954 32.8749 346.973 32.1121C346.992 31.3493 347.13 31.0407 347.28 31.4258C347.431 31.8115 347.415 32.4356 347.246 32.8128ZM75.888 32.585C75.6847 32.8853 75.793 33.1378 76.128 33.1461C76.463 33.1544 76.7437 32.9116 76.7513 32.6065C76.7589 32.3014 76.6512 32.0489 76.5113 32.0454C76.3714 32.0419 76.0912 32.2848 75.888 32.585ZM68.1532 34.6131C68.1343 35.3759 68.2572 35.6914 68.4261 35.3137C68.5956 34.9366 68.6111 34.3125 68.4606 33.9268C68.3106 33.5417 68.1722 33.8502 68.1532 34.6131ZM56.0652 34.9863C55.147 35.8283 55.1479 36.6698 56.0676 36.3741C56.467 36.2458 57.2211 36.5177 57.7441 36.9787C58.2671 37.4402 58.9741 37.6599 59.3158 37.468C60.1481 36.9996 60.1301 36.0788 59.2886 36.0579C58.918 36.0486 58.1979 35.6594 57.6894 35.1932C56.976 34.5387 56.6045 34.4917 56.0652 34.9863ZM48.2631 37.2258C48.0692 37.4036 48.0407 37.9008 48.1998 38.3316C48.4319 38.9597 47.9808 39.0345 45.9229 38.7102C44.289 38.4531 43.2067 38.5283 42.9436 38.9164C42.7164 39.2522 42.805 39.5336 43.14 39.5419C43.475 39.5503 43.7348 40.1501 43.7168 40.8747C43.691 41.9104 43.9919 42.1999 45.123 42.228C46.1366 42.2532 46.5695 41.962 46.5873 41.2431C46.6153 40.1197 48.2441 39.1216 49.366 39.5408C49.8431 39.7192 49.9595 39.4829 49.7178 38.8285C49.4706 38.1606 49.5666 37.9821 50.0191 38.267C50.3843 38.497 50.6885 38.4474 50.6957 38.1567C50.703 37.866 50.3028 37.4669 49.8067 37.2692C48.6997 36.8281 48.6963 36.828 48.2631 37.2258ZM51.839 38.5043C51.8135 39.5273 52.8688 39.8927 53.9757 39.2447C54.8045 38.7591 54.8206 38.6917 54.0593 38.8954C53.5398 39.0346 52.8317 38.861 52.4851 38.5099C52.0193 38.0381 51.8506 38.0367 51.839 38.5043ZM39.4188 40.0045C39.2155 40.3047 39.3239 40.5572 39.6589 40.5656C39.9939 40.5739 40.2596 40.9347 40.2489 41.3668C40.2205 42.5058 41.5438 42.7957 42.3271 41.8221C42.8328 41.1935 42.8171 40.8062 42.2632 40.2456C41.3919 39.3624 39.9366 39.2391 39.4188 40.0045ZM35.4965 41.3996C34.9387 41.5256 34.4717 42.0791 34.458 42.6294C34.4443 43.1797 33.9877 43.9622 33.4431 44.3678C32.5811 45.0091 32.5022 44.9861 32.8354 44.1889C33.0626 43.6433 32.8862 43.141 32.398 42.9462C31.9475 42.7668 31.5725 42.8618 31.5652 43.157C31.5578 43.4527 31.1633 43.6849 30.6884 43.6731C30.2135 43.6613 29.819 43.8935 29.8116 44.1892C29.8043 44.4843 29.4396 44.5835 29.0004 44.4082C27.7264 43.9008 27.5406 44.8865 28.6864 46.0796C29.6133 47.0453 29.7401 47.0651 29.7605 46.2451C29.7732 45.7342 30.1721 45.3255 30.647 45.3374C31.1219 45.3492 31.5006 45.7505 31.4887 46.2298C31.4525 47.6866 33.955 47.0128 34.4511 45.432C34.7232 44.5656 34.8962 44.4156 34.9167 45.0272C34.9542 46.1129 35.8187 46.3442 36.4352 45.4331C36.6558 45.1066 37.318 44.9737 37.9066 45.1377C38.7806 45.3809 38.8805 45.2535 38.455 44.4397C38.1685 43.8924 38.0952 43.2967 38.2921 43.1161C38.684 42.7562 37.4571 41.0265 36.8732 41.1158C36.6731 41.1463 36.0543 41.2741 35.4965 41.3996ZM39.0482 43.3259C38.2989 43.7669 38.3176 43.8473 39.1785 43.8759C39.7327 43.8942 40.1918 43.6597 40.1994 43.3545C40.2163 42.6777 40.1512 42.6761 39.0482 43.3259ZM23.867 47.0955C20.858 48.8642 20.5355 49.3291 22.0426 49.7257C22.5931 49.8704 22.205 49.8669 21.1789 49.7176C19.2484 49.4364 18.5888 50.2088 20.2078 50.8536C20.7918 51.0863 21.0089 51.6207 20.8016 52.3155C20.6219 52.9178 20.7097 53.4168 20.9969 53.424C21.2835 53.4311 21.5308 52.9376 21.546 52.3274C21.576 51.118 22.004 50.9777 23.2364 51.7722C24.1649 52.3709 26.1759 51.4295 26.2019 50.3843C26.2118 49.986 26.6346 49.8433 27.2183 50.0405C28.0242 50.3125 28.0605 50.2646 27.4053 49.7925C26.7428 49.3147 26.732 49.0536 27.3467 48.3744C27.9585 47.6991 27.9603 47.3478 27.3562 46.5123C26.6485 45.5332 26.4762 45.5617 23.867 47.0955ZM11.8831 58.7483C12.074 59.0628 11.6375 59.2935 10.8962 59.2706C9.82696 59.2368 9.73867 59.128 10.4442 58.7126C11.5319 58.0724 11.4721 58.0709 11.8831 58.7483ZM347.668 81.5342C347.856 81.8442 347.591 82.0874 347.079 82.0746C346.567 82.0619 346.314 81.8058 346.517 81.5055C346.72 81.2053 346.986 80.9621 347.107 80.9651C347.227 80.9681 347.48 81.2242 347.668 81.5342ZM337.649 87.1375C337.449 87.6038 337.166 87.8632 337.019 87.7141C336.871 87.565 336.928 87.1806 337.145 86.8607C337.735 85.9894 338.062 86.1696 337.649 87.1375ZM335.839 90.4231C335.64 90.8894 335.356 91.1488 335.209 90.9997C335.062 90.8506 335.119 90.4662 335.336 90.1463C335.925 89.2751 336.252 89.4553 335.839 90.4231ZM322.354 92.0067C322.347 92.3118 322.066 92.5546 321.731 92.5463C321.396 92.5379 321.288 92.2854 321.491 91.9852C321.694 91.6849 321.974 91.4421 322.114 91.4456C322.254 91.4491 322.362 91.7015 322.354 92.0067ZM324.369 92.0568C324.557 92.3668 324.307 92.6104 323.813 92.5981C323.32 92.5858 322.922 92.3261 322.93 92.021C322.937 91.7159 323.187 91.4723 323.485 91.4797C323.783 91.4871 324.181 91.7468 324.369 92.0568ZM285.816 102.2C285.808 102.505 285.543 102.748 285.227 102.74C284.91 102.733 284.657 102.476 284.665 102.171C284.672 101.866 284.938 101.623 285.254 101.631C285.571 101.639 285.824 101.895 285.816 102.2ZM63.1298 101.711C63.3887 101.908 63.1871 102.21 62.6811 102.383C62.0183 102.61 61.7693 102.366 61.7905 101.513C61.8067 100.862 62.0089 100.559 62.2391 100.842C62.4694 101.123 62.8703 101.515 63.1298 101.711ZM73.1214 102.795C72.9257 102.975 72.4285 102.982 72.0175 102.812C71.5626 102.623 71.7023 102.495 72.3735 102.485C72.9807 102.477 73.3171 102.616 73.1214 102.795ZM214.243 108.469C214.231 108.947 213.703 109.288 213.001 109.27C211.98 109.245 211.9 109.106 212.516 108.426C212.922 107.978 213.481 107.617 213.758 107.624C214.036 107.631 214.254 108.011 214.243 108.469ZM151.209 107.178C151.397 107.488 151.132 107.731 150.62 107.719C150.107 107.706 149.855 107.45 150.058 107.149C150.261 106.849 150.526 106.606 150.647 106.609C150.768 106.612 151.021 106.868 151.209 107.178ZM128.468 106.822C128.465 106.937 128.067 107.332 127.582 107.701C126.861 108.249 126.706 108.207 126.724 107.469C126.736 106.975 127.135 106.579 127.61 106.591C128.085 106.603 128.471 106.707 128.468 106.822ZM166.456 107.802C166.453 107.937 166.187 108.195 165.866 108.375C165.545 108.556 165.288 108.439 165.296 108.116C165.304 107.794 165.57 107.535 165.887 107.543C166.203 107.551 166.459 107.667 166.456 107.802ZM140.855 108.586C141.304 108.597 141.658 109.105 141.643 109.716C141.628 110.326 141.467 110.822 141.287 110.817C140.625 110.801 139.632 109.359 139.536 108.276C139.481 107.664 139.572 107.479 139.738 107.864C139.904 108.25 140.406 108.575 140.855 108.586ZM116.892 109.1C116.875 109.815 117.156 110.216 117.588 110.089C117.987 109.972 118.321 109.542 118.331 109.136C118.342 108.729 118.029 108.284 117.636 108.147C117.211 107.999 116.91 108.385 116.892 109.1ZM153.545 110.116C153.351 110.554 153.217 110.419 153.206 109.772C153.196 109.187 153.34 108.863 153.526 109.052C153.713 109.24 153.721 109.72 153.545 110.116ZM155.128 111.716C155.316 112.026 155.066 112.27 154.572 112.258C154.079 112.246 153.681 111.986 153.689 111.681C153.696 111.376 153.946 111.132 154.244 111.139C154.542 111.147 154.94 111.407 155.128 111.716Z" fill="#01FF66"/>
</svg>
